<mxfile host="65bd71144e">
    <diagram id="Y7gpDC9mRZRGyt-qcEGY" name="Page-1">
        <mxGraphModel dx="1517" dy="1662" grid="1" gridSize="10" guides="1" tooltips="1" connect="1" arrows="1" fold="1" page="1" pageScale="1" pageWidth="850" pageHeight="1100" background="none" math="0" shadow="0">
            <root>
                <mxCell id="0"/>
                <mxCell id="1" parent="0"/>
                <mxCell id="2" value="" style="swimlane;startSize=30;" parent="1" vertex="1">
                    <mxGeometry x="206.5" y="420" width="200" height="190" as="geometry">
                        <mxRectangle x="200" y="180" width="50" height="40" as="alternateBounds"/>
                    </mxGeometry>
                </mxCell>
                <mxCell id="3" value="&lt;font style=&quot;font-size: 23px&quot;&gt;REG_FILE&lt;/font&gt;" style="text;html=1;align=center;verticalAlign=middle;resizable=0;points=[];autosize=1;strokeColor=none;" parent="2" vertex="1">
                    <mxGeometry x="35" y="90" width="130" height="20" as="geometry"/>
                </mxCell>
                <mxCell id="221" value="" style="triangle;whiteSpace=wrap;html=1;" vertex="1" parent="2">
                    <mxGeometry y="156.5" width="20" height="20" as="geometry"/>
                </mxCell>
                <mxCell id="6" value="" style="endArrow=classic;html=1;" parent="1" edge="1">
                    <mxGeometry width="50" height="50" relative="1" as="geometry">
                        <mxPoint x="146.5" y="540" as="sourcePoint"/>
                        <mxPoint x="206.5" y="540" as="targetPoint"/>
                    </mxGeometry>
                </mxCell>
                <mxCell id="7" value="Write Enable" style="text;html=1;align=center;verticalAlign=middle;resizable=0;points=[];autosize=1;strokeColor=none;" parent="1" vertex="1">
                    <mxGeometry x="116.5" y="520" width="80" height="20" as="geometry"/>
                </mxCell>
                <mxCell id="9" value="" style="shape=singleArrow;direction=south;whiteSpace=wrap;html=1;" parent="1" vertex="1">
                    <mxGeometry x="291.5" y="610" width="30" height="60" as="geometry"/>
                </mxCell>
                <mxCell id="10" style="edgeStyle=orthogonalEdgeStyle;rounded=0;orthogonalLoop=1;jettySize=auto;html=1;exitX=1;exitY=0.5;exitDx=0;exitDy=0;exitPerimeter=0;" parent="1" source="9" target="9" edge="1">
                    <mxGeometry relative="1" as="geometry"/>
                </mxCell>
                <mxCell id="12" value="Data Out" style="text;html=1;align=center;verticalAlign=middle;resizable=0;points=[];autosize=1;strokeColor=none;" parent="1" vertex="1">
                    <mxGeometry x="311.5" y="630" width="60" height="20" as="geometry"/>
                </mxCell>
                <mxCell id="13" value="&lt;font style=&quot;font-size: 17px&quot;&gt;Output shift Reg&lt;/font&gt;" style="whiteSpace=wrap;html=1;" parent="1" vertex="1">
                    <mxGeometry x="206.5" y="670" width="200" height="50" as="geometry"/>
                </mxCell>
                <mxCell id="17" value="" style="swimlane;startSize=0;swimlaneLine=1;labelBackgroundColor=#ffffff;labelBorderColor=none;" parent="1" vertex="1">
                    <mxGeometry x="-52" y="-420" width="645" height="1250" as="geometry"/>
                </mxCell>
                <mxCell id="16" value="" style="endArrow=classic;html=1;" parent="17" edge="1">
                    <mxGeometry width="50" height="50" relative="1" as="geometry">
                        <mxPoint x="181" y="654.91" as="sourcePoint"/>
                        <mxPoint x="256.5" y="654.41" as="targetPoint"/>
                    </mxGeometry>
                </mxCell>
                <mxCell id="154" style="edgeStyle=orthogonalEdgeStyle;rounded=0;orthogonalLoop=1;jettySize=auto;html=1;exitX=0.75;exitY=1;exitDx=0;exitDy=0;entryX=0.25;entryY=1;entryDx=0;entryDy=0;" parent="17" source="11" target="149" edge="1">
                    <mxGeometry relative="1" as="geometry">
                        <Array as="points">
                            <mxPoint x="372" y="670"/>
                            <mxPoint x="372" y="800"/>
                            <mxPoint x="180" y="800"/>
                        </Array>
                    </mxGeometry>
                </mxCell>
                <mxCell id="11" value="&lt;font style=&quot;font-size: 17px&quot;&gt;Input Shift Reg&lt;/font&gt;" style="whiteSpace=wrap;html=1;" parent="17" vertex="1">
                    <mxGeometry x="256.5" y="640" width="200" height="30" as="geometry"/>
                </mxCell>
                <mxCell id="15" value="&amp;nbsp;Address" style="text;html=1;align=center;verticalAlign=middle;resizable=0;points=[];autosize=1;strokeColor=none;" parent="17" vertex="1">
                    <mxGeometry x="166.5" y="870" width="60" height="20" as="geometry"/>
                </mxCell>
                <mxCell id="168" style="edgeStyle=orthogonalEdgeStyle;rounded=0;orthogonalLoop=1;jettySize=auto;html=1;exitX=0;exitY=0;exitDx=0;exitDy=12.25;exitPerimeter=0;entryX=0.5;entryY=0;entryDx=0;entryDy=0;" parent="17" source="4" target="167" edge="1">
                    <mxGeometry relative="1" as="geometry">
                        <Array as="points">
                            <mxPoint x="413" y="700"/>
                            <mxPoint x="512" y="700"/>
                        </Array>
                    </mxGeometry>
                </mxCell>
                <mxCell id="4" value="" style="shape=singleArrow;whiteSpace=wrap;html=1;direction=south;" parent="17" vertex="1">
                    <mxGeometry x="377" y="670" width="35" height="170" as="geometry"/>
                </mxCell>
                <mxCell id="5" value="Data in" style="text;html=1;align=center;verticalAlign=middle;resizable=0;points=[];autosize=1;strokeColor=none;" parent="17" vertex="1">
                    <mxGeometry x="412" y="770" width="50" height="20" as="geometry"/>
                </mxCell>
                <mxCell id="14" value="" style="shape=singleArrow;whiteSpace=wrap;html=1;direction=east;" parent="17" vertex="1">
                    <mxGeometry x="190" y="880" width="67" height="30" as="geometry"/>
                </mxCell>
                <mxCell id="153" style="edgeStyle=orthogonalEdgeStyle;rounded=0;orthogonalLoop=1;jettySize=auto;html=1;exitX=0.5;exitY=1;exitDx=0;exitDy=0;entryX=0.75;entryY=1;entryDx=0;entryDy=0;" parent="17" source="43" target="149" edge="1">
                    <mxGeometry relative="1" as="geometry"/>
                </mxCell>
                <mxCell id="43" value="Address Register" style="whiteSpace=wrap;html=1;" parent="17" vertex="1">
                    <mxGeometry x="243.5" y="710" width="120" height="40" as="geometry"/>
                </mxCell>
                <mxCell id="45" value="" style="shape=singleArrow;direction=south;whiteSpace=wrap;html=1;" parent="17" vertex="1">
                    <mxGeometry x="285" y="670" width="20" height="40" as="geometry"/>
                </mxCell>
                <mxCell id="46" value="" style="endArrow=classic;html=1;" parent="17" edge="1">
                    <mxGeometry width="50" height="50" relative="1" as="geometry">
                        <mxPoint x="184" y="724.5" as="sourcePoint"/>
                        <mxPoint x="244" y="724.5" as="targetPoint"/>
                    </mxGeometry>
                </mxCell>
                <mxCell id="49" value="data_Load_EN" style="text;html=1;align=center;verticalAlign=middle;resizable=0;points=[];autosize=1;strokeColor=none;" parent="17" vertex="1">
                    <mxGeometry x="144" y="1110" width="100" height="20" as="geometry"/>
                </mxCell>
                <mxCell id="50" value="" style="endArrow=classic;html=1;" parent="17" edge="1">
                    <mxGeometry width="50" height="50" relative="1" as="geometry">
                        <mxPoint x="197" y="1130" as="sourcePoint"/>
                        <mxPoint x="257" y="1130" as="targetPoint"/>
                    </mxGeometry>
                </mxCell>
                <mxCell id="59" value="OUT_Shift_Enable" style="text;html=1;align=center;verticalAlign=middle;resizable=0;points=[];autosize=1;strokeColor=none;" parent="17" vertex="1">
                    <mxGeometry x="442" y="1080" width="120" height="20" as="geometry"/>
                </mxCell>
                <mxCell id="61" value="In_Shift_Enable" style="text;html=1;align=center;verticalAlign=middle;resizable=0;points=[];autosize=1;strokeColor=none;" parent="17" vertex="1">
                    <mxGeometry x="462" y="630" width="100" height="20" as="geometry"/>
                </mxCell>
                <mxCell id="63" value="" style="endArrow=classic;html=1;" parent="17" edge="1">
                    <mxGeometry width="50" height="50" relative="1" as="geometry">
                        <mxPoint x="510" y="654.4100000000001" as="sourcePoint"/>
                        <mxPoint x="460" y="654.4100000000001" as="targetPoint"/>
                    </mxGeometry>
                </mxCell>
                <mxCell id="86" value="&lt;font style=&quot;font-size: 17px&quot;&gt;Counter&lt;/font&gt;" style="whiteSpace=wrap;html=1;" parent="17" vertex="1">
                    <mxGeometry x="256" y="520" width="200" height="40" as="geometry"/>
                </mxCell>
                <mxCell id="87" value="CNT_En" style="text;html=1;align=center;verticalAlign=middle;resizable=0;points=[];autosize=1;strokeColor=none;" parent="17" vertex="1">
                    <mxGeometry x="456" y="520" width="60" height="20" as="geometry"/>
                </mxCell>
                <mxCell id="90" value="CNT_Tick" style="text;html=1;align=center;verticalAlign=middle;resizable=0;points=[];autosize=1;strokeColor=none;" parent="17" vertex="1">
                    <mxGeometry x="342" y="570" width="70" height="20" as="geometry"/>
                </mxCell>
                <mxCell id="104" value="" style="endArrow=none;html=1;" parent="17" edge="1">
                    <mxGeometry width="50" height="50" relative="1" as="geometry">
                        <mxPoint y="654.7099999999998" as="sourcePoint"/>
                        <mxPoint x="190" y="654.7099999999998" as="targetPoint"/>
                    </mxGeometry>
                </mxCell>
                <mxCell id="136" value="&lt;font style=&quot;font-size: 23px&quot;&gt;&lt;b&gt;Data Path&lt;/b&gt;&lt;/font&gt;" style="text;html=1;align=center;verticalAlign=middle;resizable=0;points=[];autosize=1;strokeColor=none;" parent="17" vertex="1">
                    <mxGeometry x="31.5" y="430" width="120" height="20" as="geometry"/>
                </mxCell>
                <mxCell id="140" value="" style="endArrow=classic;html=1;" parent="17" edge="1">
                    <mxGeometry width="50" height="50" relative="1" as="geometry">
                        <mxPoint x="344.29" y="560" as="sourcePoint"/>
                        <mxPoint x="344" y="600" as="targetPoint"/>
                    </mxGeometry>
                </mxCell>
                <mxCell id="141" value="&lt;span style=&quot;font-size: 23px&quot;&gt;&lt;b&gt;Control Unit&amp;nbsp;&lt;/b&gt;&lt;/span&gt;" style="text;html=1;align=center;verticalAlign=middle;resizable=0;points=[];autosize=1;strokeColor=none;" parent="17" vertex="1">
                    <mxGeometry x="27" y="20" width="150" height="20" as="geometry"/>
                </mxCell>
                <mxCell id="156" value="" style="edgeStyle=orthogonalEdgeStyle;rounded=0;orthogonalLoop=1;jettySize=auto;html=1;" parent="17" source="144" target="155" edge="1">
                    <mxGeometry relative="1" as="geometry"/>
                </mxCell>
                <mxCell id="144" value="&lt;font style=&quot;font-size: 15px&quot;&gt;IDLE&lt;/font&gt;" style="ellipse;whiteSpace=wrap;html=1;" parent="17" vertex="1">
                    <mxGeometry x="253.47" y="85" width="100" height="40" as="geometry"/>
                </mxCell>
                <mxCell id="48" value="Add_Wr_EN" style="text;html=1;align=center;verticalAlign=middle;resizable=0;points=[];autosize=1;strokeColor=none;" parent="17" vertex="1">
                    <mxGeometry x="141" y="700" width="80" height="20" as="geometry"/>
                </mxCell>
                <mxCell id="145" value="Increment" style="text;html=1;align=center;verticalAlign=middle;resizable=0;points=[];autosize=1;strokeColor=none;" parent="17" vertex="1">
                    <mxGeometry x="144.5" y="720" width="70" height="20" as="geometry"/>
                </mxCell>
                <mxCell id="146" value="" style="endArrow=classic;html=1;" parent="17" edge="1">
                    <mxGeometry width="50" height="50" relative="1" as="geometry">
                        <mxPoint x="183.5" y="744.5" as="sourcePoint"/>
                        <mxPoint x="243.5" y="744.5" as="targetPoint"/>
                    </mxGeometry>
                </mxCell>
                <mxCell id="147" value="" style="triangle;whiteSpace=wrap;html=1;" parent="17" vertex="1">
                    <mxGeometry x="257" y="1100" width="20" height="20" as="geometry"/>
                </mxCell>
                <mxCell id="148" value="" style="ellipse;whiteSpace=wrap;html=1;aspect=fixed;" parent="17" vertex="1">
                    <mxGeometry x="244" y="1103.5" width="13" height="13" as="geometry"/>
                </mxCell>
                <mxCell id="150" value="" style="edgeStyle=orthogonalEdgeStyle;rounded=0;orthogonalLoop=1;jettySize=auto;html=1;" parent="17" source="149" target="14" edge="1">
                    <mxGeometry relative="1" as="geometry">
                        <Array as="points">
                            <mxPoint x="152" y="895"/>
                        </Array>
                    </mxGeometry>
                </mxCell>
                <mxCell id="149" value="MUX 2:1" style="shape=trapezoid;perimeter=trapezoidPerimeter;whiteSpace=wrap;html=1;fixedSize=1;direction=west;" parent="17" vertex="1">
                    <mxGeometry x="90" y="820" width="120" height="40" as="geometry"/>
                </mxCell>
                <mxCell id="163" style="edgeStyle=orthogonalEdgeStyle;rounded=0;orthogonalLoop=1;jettySize=auto;html=1;exitX=0.5;exitY=1;exitDx=0;exitDy=0;" parent="17" source="155" target="159" edge="1">
                    <mxGeometry relative="1" as="geometry"/>
                </mxCell>
                <mxCell id="155" value="&lt;font style=&quot;font-size: 15px&quot;&gt;Read Command&lt;/font&gt;" style="ellipse;whiteSpace=wrap;html=1;" parent="17" vertex="1">
                    <mxGeometry x="253.47" y="165" width="100" height="40" as="geometry"/>
                </mxCell>
                <mxCell id="157" value="~CS ==0" style="text;html=1;align=center;verticalAlign=middle;resizable=0;points=[];autosize=1;strokeColor=none;" parent="17" vertex="1">
                    <mxGeometry x="304.97" y="125" width="60" height="20" as="geometry"/>
                </mxCell>
                <mxCell id="193" style="edgeStyle=orthogonalEdgeStyle;rounded=0;orthogonalLoop=1;jettySize=auto;html=1;exitX=0.5;exitY=1;exitDx=0;exitDy=0;entryX=0.5;entryY=0;entryDx=0;entryDy=0;" parent="17" source="159" target="176" edge="1">
                    <mxGeometry relative="1" as="geometry"/>
                </mxCell>
                <mxCell id="194" style="edgeStyle=orthogonalEdgeStyle;rounded=0;orthogonalLoop=1;jettySize=auto;html=1;exitX=0.5;exitY=1;exitDx=0;exitDy=0;entryX=0.5;entryY=0;entryDx=0;entryDy=0;" parent="17" source="159" target="188" edge="1">
                    <mxGeometry relative="1" as="geometry"/>
                </mxCell>
                <mxCell id="159" value="&lt;font style=&quot;font-size: 15px&quot;&gt;Read Address&lt;/font&gt;" style="ellipse;whiteSpace=wrap;html=1;" parent="17" vertex="1">
                    <mxGeometry x="253.47" y="245" width="100" height="40" as="geometry"/>
                </mxCell>
                <mxCell id="165" value="" style="endArrow=none;html=1;" parent="17" edge="1">
                    <mxGeometry width="50" height="50" relative="1" as="geometry">
                        <mxPoint x="190" y="1109.5" as="sourcePoint"/>
                        <mxPoint x="245" y="1109.5" as="targetPoint"/>
                    </mxGeometry>
                </mxCell>
                <mxCell id="166" value="" style="endArrow=classic;html=1;" parent="17" edge="1">
                    <mxGeometry width="50" height="50" relative="1" as="geometry">
                        <mxPoint x="506.5" y="1103.4999999999998" as="sourcePoint"/>
                        <mxPoint x="456.5" y="1103.4999999999998" as="targetPoint"/>
                    </mxGeometry>
                </mxCell>
                <mxCell id="167" value="&lt;font style=&quot;font-size: 14px&quot;&gt;Comarator&lt;/font&gt;" style="rounded=1;whiteSpace=wrap;html=1;" parent="17" vertex="1">
                    <mxGeometry x="484" y="720" width="78" height="40" as="geometry"/>
                </mxCell>
                <mxCell id="169" value="" style="endArrow=classic;html=1;" parent="17" edge="1">
                    <mxGeometry width="50" height="50" relative="1" as="geometry">
                        <mxPoint x="523.29" y="760" as="sourcePoint"/>
                        <mxPoint x="523" y="800" as="targetPoint"/>
                    </mxGeometry>
                </mxCell>
                <mxCell id="187" style="edgeStyle=orthogonalEdgeStyle;rounded=0;orthogonalLoop=1;jettySize=auto;html=1;exitX=0.5;exitY=1;exitDx=0;exitDy=0;entryX=0.5;entryY=0;entryDx=0;entryDy=0;" parent="17" source="176" target="144" edge="1">
                    <mxGeometry relative="1" as="geometry">
                        <Array as="points">
                            <mxPoint x="307" y="370"/>
                            <mxPoint x="307" y="375"/>
                            <mxPoint x="170" y="375"/>
                            <mxPoint x="170" y="65"/>
                            <mxPoint x="304" y="65"/>
                        </Array>
                    </mxGeometry>
                </mxCell>
                <mxCell id="176" value="&lt;font style=&quot;font-size: 15px&quot;&gt;Read Transfer&lt;/font&gt;" style="ellipse;whiteSpace=wrap;html=1;" parent="17" vertex="1">
                    <mxGeometry x="249.97" y="330" width="107" height="40" as="geometry"/>
                </mxCell>
                <mxCell id="180" value="&lt;font style=&quot;font-size: 17px&quot;&gt;Cmp_FF&lt;/font&gt;" style="whiteSpace=wrap;html=1;" parent="17" vertex="1">
                    <mxGeometry x="500" y="800" width="92" height="50" as="geometry"/>
                </mxCell>
                <mxCell id="181" value="" style="triangle;whiteSpace=wrap;html=1;" parent="17" vertex="1">
                    <mxGeometry x="500" y="820" width="10" height="10" as="geometry"/>
                </mxCell>
                <mxCell id="182" value="" style="triangle;whiteSpace=wrap;html=1;" parent="17" vertex="1">
                    <mxGeometry x="257" y="530" width="20" height="20" as="geometry"/>
                </mxCell>
                <mxCell id="183" value="" style="triangle;whiteSpace=wrap;html=1;" parent="17" vertex="1">
                    <mxGeometry x="244" y="730" width="10" height="10" as="geometry"/>
                </mxCell>
                <mxCell id="189" style="edgeStyle=orthogonalEdgeStyle;rounded=0;orthogonalLoop=1;jettySize=auto;html=1;exitX=0.5;exitY=1;exitDx=0;exitDy=0;entryX=0.58;entryY=-0.025;entryDx=0;entryDy=0;entryPerimeter=0;" parent="17" source="188" target="144" edge="1">
                    <mxGeometry relative="1" as="geometry">
                        <Array as="points">
                            <mxPoint x="411.47" y="355"/>
                            <mxPoint x="418.47" y="355"/>
                            <mxPoint x="418.47" y="375"/>
                            <mxPoint x="475.47" y="375"/>
                            <mxPoint x="475.47" y="65"/>
                            <mxPoint x="311.47" y="65"/>
                        </Array>
                    </mxGeometry>
                </mxCell>
                <mxCell id="188" value="&lt;font style=&quot;font-size: 15px&quot;&gt;Write Transfer&lt;/font&gt;" style="ellipse;whiteSpace=wrap;html=1;" parent="17" vertex="1">
                    <mxGeometry x="357.97" y="330" width="107" height="40" as="geometry"/>
                </mxCell>
                <mxCell id="196" value="CNT_tick ==1" style="text;html=1;align=center;verticalAlign=middle;resizable=0;points=[];autosize=1;strokeColor=none;" parent="17" vertex="1">
                    <mxGeometry x="294.97" y="215" width="90" height="20" as="geometry"/>
                </mxCell>
                <mxCell id="197" value="CNT_tick ==1&lt;br&gt;Cmp_Output ==1" style="text;html=1;align=center;verticalAlign=middle;resizable=0;points=[];autosize=1;strokeColor=none;" parent="17" vertex="1">
                    <mxGeometry x="338.97" y="270" width="110" height="30" as="geometry"/>
                </mxCell>
                <mxCell id="199" value="CNT_tick ==1&lt;br&gt;~CS==1" style="text;html=1;align=center;verticalAlign=middle;resizable=0;points=[];autosize=1;strokeColor=none;" parent="17" vertex="1">
                    <mxGeometry x="314.97" y="370" width="90" height="30" as="geometry"/>
                </mxCell>
                <mxCell id="206" value="CMP_OUT" style="text;html=1;align=center;verticalAlign=middle;resizable=0;points=[];autosize=1;strokeColor=none;" parent="17" vertex="1">
                    <mxGeometry x="537" y="860" width="70" height="20" as="geometry"/>
                </mxCell>
                <mxCell id="207" value="CMP_EN" style="text;html=1;align=center;verticalAlign=middle;resizable=0;points=[];autosize=1;strokeColor=none;" parent="17" vertex="1">
                    <mxGeometry x="430" y="790" width="70" height="20" as="geometry"/>
                </mxCell>
                <mxCell id="208" value="" style="endArrow=classic;html=1;" parent="17" edge="1">
                    <mxGeometry width="50" height="50" relative="1" as="geometry">
                        <mxPoint x="440" y="810.0000000000002" as="sourcePoint"/>
                        <mxPoint x="500" y="810.0000000000002" as="targetPoint"/>
                    </mxGeometry>
                </mxCell>
                <mxCell id="198" value="CNT_tick ==1&lt;br&gt;Cmp_Output ==0" style="text;html=1;align=center;verticalAlign=middle;resizable=0;points=[];autosize=1;strokeColor=none;" parent="17" vertex="1">
                    <mxGeometry x="175" y="290" width="110" height="30" as="geometry"/>
                </mxCell>
                <mxCell id="211" value="" style="endArrow=classic;html=1;" parent="17" edge="1">
                    <mxGeometry width="50" height="50" relative="1" as="geometry">
                        <mxPoint x="506" y="538.82" as="sourcePoint"/>
                        <mxPoint x="456" y="538.82" as="targetPoint"/>
                    </mxGeometry>
                </mxCell>
                <mxCell id="212" value="" style="endArrow=classic;html=1;" parent="17" edge="1">
                    <mxGeometry width="50" height="50" relative="1" as="geometry">
                        <mxPoint x="62" y="840" as="sourcePoint"/>
                        <mxPoint x="102" y="840" as="targetPoint"/>
                    </mxGeometry>
                </mxCell>
                <mxCell id="213" value="Mux sel" style="text;html=1;align=center;verticalAlign=middle;resizable=0;points=[];autosize=1;strokeColor=none;" parent="17" vertex="1">
                    <mxGeometry x="40" y="810" width="60" height="20" as="geometry"/>
                </mxCell>
                <mxCell id="217" value="" style="endArrow=classic;html=1;" edge="1" parent="17">
                    <mxGeometry width="50" height="50" relative="1" as="geometry">
                        <mxPoint x="316.97" y="560" as="sourcePoint"/>
                        <mxPoint x="317" y="600" as="targetPoint"/>
                    </mxGeometry>
                </mxCell>
                <mxCell id="218" value="SIX_CNT_Tick" style="text;html=1;align=center;verticalAlign=middle;resizable=0;points=[];autosize=1;strokeColor=none;" vertex="1" parent="17">
                    <mxGeometry x="222" y="570" width="90" height="20" as="geometry"/>
                </mxCell>
                <mxCell id="223" value="" style="shape=flexArrow;endArrow=classic;html=1;" edge="1" parent="17">
                    <mxGeometry width="50" height="50" relative="1" as="geometry">
                        <mxPoint x="208.32999999999998" y="470" as="sourcePoint"/>
                        <mxPoint x="208.32999999999998" y="400" as="targetPoint"/>
                    </mxGeometry>
                </mxCell>
                <mxCell id="224" value="CNT_TICK&lt;br&gt;SIX_CNT_TICK&lt;br&gt;CMP_OUT" style="text;html=1;align=center;verticalAlign=middle;resizable=0;points=[];autosize=1;strokeColor=none;" vertex="1" parent="17">
                    <mxGeometry x="232" y="415" width="100" height="50" as="geometry"/>
                </mxCell>
                <mxCell id="226" value="CNT_EN&lt;br&gt;In_Shift_En&lt;br&gt;CMP_EN&lt;br&gt;Write_Enable&lt;br&gt;data_load_En&lt;br&gt;OUT_Shift_Enable&lt;br&gt;ADD_WR_EN&lt;br&gt;MUX_SEL" style="text;html=1;align=center;verticalAlign=middle;resizable=0;points=[];autosize=1;strokeColor=none;" vertex="1" parent="17">
                    <mxGeometry x="477" y="380" width="120" height="120" as="geometry"/>
                </mxCell>
                <mxCell id="18" value="" style="endArrow=classic;html=1;" parent="1" edge="1">
                    <mxGeometry width="50" height="50" relative="1" as="geometry">
                        <mxPoint x="-110" y="440" as="sourcePoint"/>
                        <mxPoint x="-50" y="440" as="targetPoint"/>
                    </mxGeometry>
                </mxCell>
                <mxCell id="19" value="" style="endArrow=classic;html=1;" parent="1" edge="1">
                    <mxGeometry width="50" height="50" relative="1" as="geometry">
                        <mxPoint x="-110" y="400" as="sourcePoint"/>
                        <mxPoint x="-50" y="400" as="targetPoint"/>
                    </mxGeometry>
                </mxCell>
                <mxCell id="21" value="" style="endArrow=classic;html=1;" parent="1" edge="1">
                    <mxGeometry width="50" height="50" relative="1" as="geometry">
                        <mxPoint x="-51" y="770" as="sourcePoint"/>
                        <mxPoint x="-111" y="770" as="targetPoint"/>
                    </mxGeometry>
                </mxCell>
                <mxCell id="22" value="MOSI" style="text;html=1;align=center;verticalAlign=middle;resizable=0;points=[];autosize=1;strokeColor=none;" parent="1" vertex="1">
                    <mxGeometry x="-110" y="210" width="50" height="20" as="geometry"/>
                </mxCell>
                <mxCell id="23" value="MISO" style="text;html=1;align=center;verticalAlign=middle;resizable=0;points=[];autosize=1;strokeColor=none;" parent="1" vertex="1">
                    <mxGeometry x="-110" y="740" width="50" height="20" as="geometry"/>
                </mxCell>
                <mxCell id="24" value="SCLK" style="text;html=1;align=center;verticalAlign=middle;resizable=0;points=[];autosize=1;strokeColor=none;" parent="1" vertex="1">
                    <mxGeometry x="-100" y="370" width="50" height="20" as="geometry"/>
                </mxCell>
                <mxCell id="26" value="~CS" style="text;html=1;align=center;verticalAlign=middle;resizable=0;points=[];autosize=1;strokeColor=none;" parent="1" vertex="1">
                    <mxGeometry x="-95" y="410" width="40" height="20" as="geometry"/>
                </mxCell>
                <mxCell id="28" value="&lt;font style=&quot;font-size: 30px&quot;&gt;SPI SLAVE&lt;/font&gt;" style="text;html=1;align=center;verticalAlign=middle;resizable=0;points=[];autosize=1;strokeColor=none;" parent="1" vertex="1">
                    <mxGeometry x="151.5" y="-470" width="170" height="30" as="geometry"/>
                </mxCell>
                <mxCell id="93" value="" style="endArrow=classic;html=1;" parent="1" edge="1">
                    <mxGeometry width="50" height="50" relative="1" as="geometry">
                        <mxPoint x="410" y="700" as="sourcePoint"/>
                        <mxPoint x="470" y="700" as="targetPoint"/>
                        <Array as="points">
                            <mxPoint x="440" y="700"/>
                        </Array>
                    </mxGeometry>
                </mxCell>
                <mxCell id="99" value="" style="endArrow=none;html=1;" parent="1" edge="1">
                    <mxGeometry width="50" height="50" relative="1" as="geometry">
                        <mxPoint x="440" y="700" as="sourcePoint"/>
                        <mxPoint x="440" y="770" as="targetPoint"/>
                    </mxGeometry>
                </mxCell>
                <mxCell id="100" value="" style="endArrow=none;html=1;" parent="1" edge="1">
                    <mxGeometry width="50" height="50" relative="1" as="geometry">
                        <mxPoint x="-50" y="770" as="sourcePoint"/>
                        <mxPoint x="440" y="770" as="targetPoint"/>
                    </mxGeometry>
                </mxCell>
                <mxCell id="102" value="output Data" style="text;html=1;align=center;verticalAlign=middle;resizable=0;points=[];autosize=1;strokeColor=none;" parent="1" vertex="1">
                    <mxGeometry x="459" y="680" width="80" height="20" as="geometry"/>
                </mxCell>
                <mxCell id="132" value="" style="swimlane;startSize=0;" parent="1" vertex="1">
                    <mxGeometry x="-10" y="50" width="580" height="760" as="geometry">
                        <mxRectangle x="200" y="180" width="50" height="40" as="alternateBounds"/>
                    </mxGeometry>
                </mxCell>
                <mxCell id="137" value="" style="swimlane;startSize=0;" parent="1" vertex="1">
                    <mxGeometry x="-12" y="-370" width="580" height="350" as="geometry">
                        <mxRectangle x="200" y="180" width="50" height="40" as="alternateBounds"/>
                    </mxGeometry>
                </mxCell>
                <mxCell id="205" value="" style="endArrow=classic;html=1;" parent="1" edge="1">
                    <mxGeometry width="50" height="50" relative="1" as="geometry">
                        <mxPoint x="470.28999999999996" y="430" as="sourcePoint"/>
                        <mxPoint x="470" y="470" as="targetPoint"/>
                    </mxGeometry>
                </mxCell>
                <mxCell id="20" value="" style="endArrow=classic;html=1;" parent="1" edge="1">
                    <mxGeometry width="50" height="50" relative="1" as="geometry">
                        <mxPoint x="-112" y="234.76" as="sourcePoint"/>
                        <mxPoint x="-52" y="234.76" as="targetPoint"/>
                        <Array as="points"/>
                    </mxGeometry>
                </mxCell>
                <mxCell id="219" value="" style="ellipse;whiteSpace=wrap;html=1;aspect=fixed;" vertex="1" parent="1">
                    <mxGeometry x="193.5" y="580" width="13" height="13" as="geometry"/>
                </mxCell>
                <mxCell id="220" value="" style="endArrow=none;html=1;" edge="1" parent="1">
                    <mxGeometry width="50" height="50" relative="1" as="geometry">
                        <mxPoint x="138.5" y="585.91" as="sourcePoint"/>
                        <mxPoint x="193.5" y="585.91" as="targetPoint"/>
                    </mxGeometry>
                </mxCell>
                <mxCell id="225" value="" style="shape=flexArrow;endArrow=classic;html=1;" edge="1" parent="1">
                    <mxGeometry width="50" height="50" relative="1" as="geometry">
                        <mxPoint x="390" y="-20" as="sourcePoint"/>
                        <mxPoint x="390" y="50" as="targetPoint"/>
                    </mxGeometry>
                </mxCell>
            </root>
        </mxGraphModel>
    </diagram>
</mxfile>